<?xml version="1.0" standalone="no"?>
<!DOCTYPE svg PUBLIC "-//W3C//DTD SVG 20010904//EN"
 "http://www.w3.org/TR/2001/REC-SVG-20010904/DTD/svg10.dtd">
<svg version="1.0" xmlns="http://www.w3.org/2000/svg"
 width="1006.000000pt" height="1006.000000pt" viewBox="0 0 1006.000000 1006.000000"
 preserveAspectRatio="xMidYMid meet">
<metadata>
Created by potrace 1.14, written by Peter Selinger 2001-2017
</metadata>
<g transform="translate(0.000000,1006.000000) scale(0.100000,-0.100000)"
fill="#000000" stroke="none">
<path d="M2160 7024 l0 -3027 280 -276 c154 -152 481 -475 727 -718 246 -243
606 -598 798 -788 327 -324 984 -973 1610 -1590 149 -147 351 -347 451 -446
l180 -179 847 0 847 0 1 43 c1 23 1 46 0 52 -2 5 -2 110 -1 235 1 124 2 232 1
240 0 8 0 116 0 240 1 124 1 232 0 240 0 8 0 116 0 240 1 124 1 232 0 240 0 8
0 116 0 240 1 124 1 232 1 240 0 8 0 764 0 1680 0 916 0 1672 -1 1680 0 8 0
116 0 240 1 124 1 232 0 240 0 8 0 96 0 195 l0 181 -203 196 c-285 277 -395
384 -703 683 -148 144 -324 315 -390 378 -66 64 -193 187 -282 274 -89 87
-263 257 -388 378 -125 121 -276 267 -335 325 -59 58 -219 213 -355 345 -136
132 -310 301 -386 375 -76 74 -240 234 -365 355 -125 121 -295 286 -378 367
l-151 148 -902 0 -903 0 0 -3026z"/>
<path d="M6125 8270 c979 -979 1781 -1780 1782 -1780 2 0 3 801 3 1780 l0
1780 -1782 0 -1783 0 1780 -1780z"/>
<path d="M2160 1780 l0 -1780 1782 0 c980 0 1779 2 1777 5 -22 24 -3554 3555
-3556 3555 -2 0 -3 -801 -3 -1780z"/>
</g>
</svg>
